<svg width="310" height="190" xmlns="http://www.w3.org/2000/svg" xmlns:xlink="http://www.w3.org/1999/xlink" preserveAspectRatio="xMidYMid meet">
 <defs>
  <path d="m391.67,329.17c0,39.09 -44.35,70.83 -98.96,70.83c-54.62,0 -98.96,-31.74 -98.96,-70.83c0,-39.1 44.34,-70.84 98.96,-70.84c54.61,0 98.96,31.74 98.96,70.84z" id="b5cKYEIrBw"/>
  <path d="m408.33,283.33c0,39.1 -34.54,70.84 -77.08,70.84c-42.54,0 -77.08,-31.74 -77.08,-70.84c0,-39.09 34.54,-70.83 77.08,-70.83c42.54,0 77.08,31.74 77.08,70.83z" id="d269wcg6O0"/>
  <path d="m468.75,339.58c0,39.1 -44.34,70.84 -98.96,70.84c-54.61,0 -98.96,-31.74 -98.96,-70.84c0,-39.09 44.35,-70.83 98.96,-70.83c54.62,0 98.96,31.74 98.96,70.83z" id="b1v8K3Y5KB"/>
  <path d="m587.5,339.58c0,25.87 -60.68,46.88 -135.42,46.88c-74.74,0 -135.41,-21.01 -135.41,-46.88c0,-25.87 60.67,-46.87 135.41,-46.87c74.74,0 135.42,21 135.42,46.87z" id="c7RRIrZqPG"/>
  <path d="m551.04,277.08c0,39.1 -44.34,70.84 -98.96,70.84c-54.61,0 -98.96,-31.74 -98.96,-70.84c0,-39.09 44.35,-70.83 98.96,-70.83c54.62,0 98.96,31.74 98.96,70.83z" id="d9jkeXpQB"/>
 </defs>
 <g>
  <title>background</title>
  <rect x="-1" y="-1" width="312" height="192" id="canvas_background" fill="none"/>
 </g>
 <g>
  <title>Layer 1</title>
  <g stroke="null" id="svg_1">
   <g stroke="null" id="svg_2">
    <g stroke="null" id="svg_3">
     <use stroke="null" xlink:href="#b5cKYEIrBw" fill="#e9eae6" id="svg_4" transform="matrix(0.7688888988984915,0,0,0.8629105242109801,9.584099641931914,-13.603585729296801) " y="-187.87778" x="-203.93886"/>
    </g>
    <g stroke="null" id="svg_5">
     <use stroke="null" xlink:href="#d269wcg6O0" fill="#e9eae6" id="svg_6" transform="matrix(0.7688888988984915,0,0,0.8629105242109801,9.584099641931914,-13.603585729296801) " y="-187.87778" x="-203.93886"/>
    </g>
    <g stroke="null" id="svg_7">
     <use stroke="null" xlink:href="#b1v8K3Y5KB" fill="#e9eae6" id="svg_8" transform="matrix(0.7688888988984915,0,0,0.8629105242109801,9.584099641931914,-13.603585729296801) " y="-187.87778" x="-203.93886"/>
    </g>
    <g stroke="null" id="svg_9">
     <use stroke="null" xlink:href="#c7RRIrZqPG" fill="#e9eae6" id="svg_10" transform="matrix(0.7688888988984915,0,0,0.8629105242109801,9.584099641931914,-13.603585729296801) " y="-187.87778" x="-203.93886"/>
    </g>
    <g stroke="null" id="svg_11">
     <use stroke="null" xlink:href="#d9jkeXpQB" fill="#e9eae6" id="svg_12" transform="matrix(0.7688888988984915,0,0,0.8629105242109801,9.584099641931914,-13.603585729296801) " y="-187.87778" x="-203.93886"/>
    </g>
   </g>
  </g>
 </g>
</svg>