<svg width="780" height="450" xmlns="http://www.w3.org/2000/svg">
 <!-- Created with Method Draw - http://github.com/duopixel/Method-Draw/ -->

 <g>
  <title>background</title>
  <rect x="-1" y="-1" width="782" height="452" id="canvas_background" fill="none"/>
 </g>
 <g>
  <title>Layer 1</title>
  <ellipse stroke="#000" ry="279.67324" rx="269.26564" id="svg_43" cy="310.36125" cx="401.18936" stroke-width="0" fill="#00bf5f"/>
  <ellipse stroke="#000" transform="rotate(-0.5175226926803589 266.78762817381534,442.6873168945286) " ry="261.48788" rx="266.74555" id="svg_6" cy="442.68733" cx="266.78762" stroke-width="0" fill="#36d181"/>
  <ellipse stroke="#000" ry="277.40657" rx="274.30336" id="svg_44" cy="445.44652" cx="506.7139" stroke-width="0" fill="#288756"/>
  <ellipse stroke="#000" ry="213.00604" rx="224.88464" id="svg_5" cy="309.15781" cx="512.86082" stroke-width="0" fill="#75e802"/>
  <ellipse stroke="#000" transform="rotate(1 332.026977539054,353.1308593750004) " ry="211.92522" rx="206.17155" id="svg_4" cy="353.13086" cx="332.02697" stroke-width="0" fill="#00ff7f"/>
  <path stroke="#000" id="svg_15" d="m289.67255,77.27999l9.99999,0l0,59.56114l-9.99999,0l0,-59.56114z" stroke-opacity="null" stroke-width="0" fill="#8e5723"/>
  <path stroke="#000" id="svg_16" d="m266.55623,113.66718l27.83453,-113.42446l27.83453,113.42446l-55.66907,0l0.00001,0z" stroke-opacity="null" stroke-width="0" fill="#007f00"/>
  <path id="svg_17" d="m530.23705,190.75385l9.99999,0l0,60.99999l-9.99999,0l0,-60.99999z" stroke-opacity="null" stroke-width="0" stroke="#000" fill="#a35d1b"/>
  <path stroke="#000" id="svg_18" d="m506.28135,233.69119l28.19424,-109.82734l28.19424,109.82734l-56.38848,0z" stroke-opacity="null" stroke-width="0" fill="#007f3f"/>
  <path id="svg_19" d="m410.09628,307.9283l9.99999,0l0,60.99999l-9.99999,0l0,-60.99999z" stroke-opacity="null" stroke-width="0" stroke="#000" fill="#bc844f"/>
  <path stroke="#bf0000" id="svg_20" d="m379.67605,352.78475l35.74821,-115.58274l35.74821,115.58274l-71.49641,0l-0.00001,0z" stroke-width="0" fill="#21ce49"/>
  <path id="svg_21" d="m407.8901,156.66226l9.99999,0l0,60.99999l-9.99999,0l0,-60.99999z" stroke-opacity="null" stroke-width="0" stroke="#000" fill="#8e5723"/>
  <path stroke="#000" id="svg_22" d="m385.6641,210.03251l27.83453,-111.98562l27.83453,111.98562l-55.66907,0l0.00001,0z" stroke-opacity="null" stroke-width="0" fill="#56a07a"/>
  <path stroke="#000" d="m163.01825,132.66216c0,-0.14215 -0.79189,-0.48318 1.83946,-2.13232c1.42706,-0.89437 2.89048,-1.73596 4.29212,-2.13233c0.54975,-0.15547 0.79275,-0.38482 1.22632,-0.28431c0.43357,0.10052 0.4191,0.42948 0,1.99017c-0.61435,2.28775 -3.79599,4.40036 -4.90526,5.54403c-1.37184,1.41438 -2.45261,1.84801 -1.83948,1.84801c0.61313,0 -0.20988,-0.58305 0.61317,-1.13724c1.96602,-1.32379 4.16684,-2.57174 6.13158,-3.55387c1.15375,-0.57672 1.22632,-0.71078 1.83948,-0.85293c0,0 0.61315,0 0.61315,0c0,0 0.41672,0.28798 0.61317,0.56863c0.31059,0.44373 0.61315,0.56862 0.61315,0.56862c0.61317,0 2.75716,-0.52557 4.90528,-1.42155c3.59942,-1.50132 4.90526,-2.70095 6.74473,-4.12249c1.83948,-1.42155 2.8455,-2.42527 3.67897,-3.41172c0.48598,-0.57519 0.61315,-0.85292 0.61315,-0.99508l0,0l0,0l0,-0.14216" id="svg_27" stroke-opacity="null" stroke-width="0" fill="none"/>
  <path id="svg_29" d="m176.11243,161.03011l0,0c0,-0.41145 0.33355,-0.745 0.745,-0.745l0,0c0.19759,0 0.38708,0.07849 0.52679,0.21821c0.13971,0.13971 0.21821,0.32921 0.21821,0.52679l0,0c0,0.41145 -0.33355,0.745 -0.745,0.745l0,0c-0.41145,0 -0.745,-0.33355 -0.745,-0.745zm0.3725,0l0,0c0,0.20573 0.16677,0.3725 0.3725,0.3725c0.20573,0 0.3725,-0.16677 0.3725,-0.3725c0,-0.20573 -0.16677,-0.3725 -0.3725,-0.3725l0,0c-0.20573,0 -0.3725,0.16677 -0.3725,0.3725z" fill-opacity="null" stroke-opacity="null" stroke-width="0" stroke="#000" fill="none"/>
  <path id="svg_31" d="m210.43943,102.82343l0,0c0,-0.41145 0.33355,-0.745 0.745,-0.745l0,0c0.19759,0 0.38708,0.07849 0.52679,0.21821c0.13971,0.13971 0.21821,0.32921 0.21821,0.52679l0,0c0,0.41145 -0.33355,0.745 -0.745,0.745l0,0c-0.41145,0 -0.745,-0.33355 -0.745,-0.745zm0.3725,0l0,0c0,0.20573 0.16677,0.3725 0.3725,0.3725c0.20573,0 0.3725,-0.16677 0.3725,-0.3725c0,-0.20573 -0.16677,-0.3725 -0.3725,-0.3725l0,0c-0.20573,0 -0.3725,0.16677 -0.3725,0.3725z" fill-opacity="null" stroke-opacity="null" stroke-width="0" stroke="#000" fill="none"/>
  <path id="svg_32" d="m233.32411,87.40117l0,0c0,-0.41145 0.33355,-0.745 0.745,-0.745l0,0c0.19759,0 0.38708,0.07849 0.52679,0.21821c0.13971,0.13971 0.21821,0.32921 0.21821,0.52679l0,0c0,0.41145 -0.33355,0.745 -0.745,0.745l0,0c-0.41145,0 -0.745,-0.33355 -0.745,-0.745zm0.3725,0l0,0c0,0.20573 0.16677,0.3725 0.3725,0.3725c0.20573,0 0.3725,-0.16677 0.3725,-0.3725c0,-0.20573 -0.16677,-0.3725 -0.3725,-0.3725l0,0c-0.20573,0 -0.3725,0.16677 -0.3725,0.3725z" fill-opacity="null" stroke-opacity="null" stroke-width="0" stroke="#000" fill="none"/>
  <path id="svg_34" d="m125.86565,98.84349l0,0c0,-0.41145 0.33355,-0.745 0.745,-0.745l0,0c0.19759,0 0.38708,0.07849 0.52679,0.21821c0.13971,0.13971 0.21821,0.32921 0.21821,0.52679l0,0c0,0.41145 -0.33355,0.745 -0.745,0.745l0,0c-0.41145,0 -0.745,-0.33355 -0.745,-0.745zm0.3725,0l0,0c0,0.20573 0.16677,0.3725 0.3725,0.3725c0.20573,0 0.3725,-0.16677 0.3725,-0.3725c0,-0.20573 -0.16677,-0.3725 -0.3725,-0.3725l0,0c-0.20573,0 -0.3725,0.16677 -0.3725,0.3725z" fill-opacity="null" stroke-opacity="null" stroke-width="0" stroke="#000" fill="none"/>
  <path id="svg_38" d="m348.99495,158.99512" opacity="0.5" stroke-opacity="null" stroke-width="0" stroke="#000" fill="#C48157"/>
  <path id="svg_47" d="m337.92688,155.56253l0,0c0,-0.41145 0.33355,-0.745 0.745,-0.745l0,0c0.19759,0 0.38708,0.07849 0.52679,0.21821c0.13971,0.13971 0.21821,0.32921 0.21821,0.52679l0,0c0,0.41145 -0.33355,0.745 -0.745,0.745l0,0c-0.41145,0 -0.745,-0.33355 -0.745,-0.745zm0.3725,0l0,0c0,0.20573 0.16677,0.3725 0.3725,0.3725c0.20573,0 0.3725,-0.16677 0.3725,-0.3725c0,-0.20573 -0.16677,-0.3725 -0.3725,-0.3725l0,0c-0.20573,0 -0.3725,0.16677 -0.3725,0.3725z" stroke-opacity="null" stroke-width="0" stroke="#000" fill="#36d181"/>
  <path id="svg_53" d="m337.72978,271.20078c-0.0348,-0.06286 -0.07737,-0.11375 -0.12007,-0.14935c-0.04983,0.03649 -0.11051,0.05871 -0.17667,0.05871c-0.06629,0 -0.12706,-0.02226 -0.1768,-0.05871c-0.0427,0.0356 -0.08532,0.08649 -0.1202,0.14935c-0.08097,0.14594 -0.08988,0.29564 -0.01994,0.33445c0.03132,0.01748 0.06416,0.00445 0.09809,-0.02824c-0.00595,0.03315 -0.00943,0.06907 -0.00943,0.10665c0,0.16694 0.06486,0.30217 0.14479,0.30217c0.04818,0 0.07203,-0.04924 0.08349,-0.12463c0.01143,0.07539 0.03527,0.12463 0.08328,0.12463c0.08006,0 0.14492,-0.13523 0.14492,-0.30217c0,-0.03758 -0.00348,-0.0735 -0.00956,-0.10665c0.03401,0.03269 0.06681,0.04572 0.09822,0.02824c0.0699,-0.03881 0.06086,-0.18851 -0.02011,-0.33445l0,0l-0.00001,0zm-0.29683,-0.14759c0.13449,0 0.24357,-0.10908 0.24357,-0.24364s-0.10908,-0.24364 -0.24357,-0.24364c-0.13454,0 -0.2437,0.1091 -0.2437,0.24364s0.10917,0.24364 0.2437,0.24364z" stroke-opacity="null" stroke-width="0" stroke="#000" fill="#a35d1b"/>
  <path id="svg_55" d="m228.34073,247.95293l9.99999,0l0,60.99999l-9.99999,0l0,-60.99999z" stroke-opacity="null" stroke-width="0" stroke="#000" fill="#bc844f"/>
  <path stroke="#bf0000" id="svg_56" d="m211.58957,281.29858l21,-118.46044l21,118.46044l-42,0z" stroke-width="0" fill="#4dbc69"/>
  <path id="svg_57" d="m623.76543,243.18007l9.99999,0l0,60.99999l-9.99999,0l0,-60.99999z" stroke-opacity="null" stroke-width="0" stroke="#000" fill="#bc844f"/>
  <path stroke="#bf0000" id="svg_58" d="m601.25886,289.47536l28.19425,-117.02158l28.19425,117.02158l-56.38849,0l-0.00001,0z" stroke-width="0" fill="#4ab264"/>
 </g>
</svg>